<?xml version="1.0" encoding="UTF-8" standalone="no"?>
<svg
   width="380.97412"
   zoomAndPan="magnify"
   viewBox="0 0 285.73059 37.499999"
   height="50"
   preserveAspectRatio="xMidYMid"
   version="1.0"
   id="svg92"
   sodipodi:docname="logo-header.svg"
   inkscape:version="1.3.2 (091e20e, 2023-11-25, custom)"
   xmlns:inkscape="http://www.inkscape.org/namespaces/inkscape"
   xmlns:sodipodi="http://sodipodi.sourceforge.net/DTD/sodipodi-0.dtd"
   xmlns="http://www.w3.org/2000/svg"
   xmlns:svg="http://www.w3.org/2000/svg">
  <sodipodi:namedview
     id="namedview92"
     pagecolor="#505050"
     bordercolor="#eeeeee"
     borderopacity="1"
     inkscape:showpageshadow="0"
     inkscape:pageopacity="0"
     inkscape:pagecheckerboard="0"
     inkscape:deskcolor="#d1d1d1"
     inkscape:zoom="1.642"
     inkscape:cx="189.09866"
     inkscape:cy="25.274056"
     inkscape:window-width="1920"
     inkscape:window-height="1017"
     inkscape:window-x="-8"
     inkscape:window-y="-8"
     inkscape:window-maximized="1"
     inkscape:current-layer="svg92" />
  <defs
     id="defs5">
    <g
       id="g1" />
    <clipPath
       id="0b3aa16aa4">
      <path
         d="m 48,170 h 32 v 36.10156 H 48 Z m 0,0"
         clip-rule="nonzero"
         id="path1" />
    </clipPath>
    <clipPath
       id="c0c219e16e">
      <path
         d="m 80,174 h 2.675781 v 2 H 80 Z m 0,0"
         clip-rule="nonzero"
         id="path2" />
    </clipPath>
    <clipPath
       id="29a54129bd">
      <path
         d="m 74,168.60156 h 3 V 171 h -3 z m 0,0"
         clip-rule="nonzero"
         id="path3" />
    </clipPath>
    <clipPath
       id="744600aa63">
      <path
         d="M 45.175781,181 H 48 v 3 h -2.824219 z m 0,0"
         clip-rule="nonzero"
         id="path4" />
    </clipPath>
    <clipPath
       id="f3cdbfac4e">
      <path
         d="m 68,168.60156 h 2 V 172 h -2 z m 0,0"
         clip-rule="nonzero"
         id="path5" />
    </clipPath>
  </defs>
  <g
     clip-path="url(#0b3aa16aa4)"
     id="g6"
     transform="translate(-45.207031,-168.60156)"
     style="fill:#141414;fill-opacity:1">
    <path
       fill="#000000"
       d="m 53.558594,193.45703 c -0.378906,-1.20312 -0.644532,-2.46094 -0.746094,-3.78125 -0.34375,-0.30469 -0.535156,-0.60937 -0.664062,-1.07031 -0.113282,-0.33985 -0.132813,-0.64453 -0.132813,-1.00781 0.01953,-0.4961 0.09375,-0.91407 0.175781,-1.375 0,-0.32422 -0.01953,-0.57422 -0.113281,-0.87891 -0.09375,-0.28516 -0.191406,-0.45703 -0.378906,-0.68359 -0.398438,-0.4961 -0.859375,-0.80079 -1.394531,-1.16407 -0.554688,-0.33984 -1.050782,-0.64843 -1.46875,-1.125 -0.210938,-0.25 -0.324219,-0.46093 -0.398438,-0.76562 -0.07422,-0.32422 -0.05469,-0.59375 0,-0.91406 0,0.32031 0.03516,0.55078 0.171875,0.85546 0.132813,0.25 0.269531,0.39844 0.480469,0.55469 0.460937,0.34375 1.007812,0.55469 1.542968,0.76563 0.703126,0.28906 1.238282,0.51562 1.851563,0.99218 0.304687,0.2461 0.515625,0.47657 0.71875,0.78125 0.25,-1.14453 0.628906,-2.26953 1.128906,-3.3164 0.515625,-1.08985 0.988281,-2.0586 1.542969,-2.95703 0.589844,-0.95313 0.804688,-1.29297 0.746094,-2.40235 -0.03516,-0.64843 -0.113282,-1.125 -0.113282,-1.80859 0,-0.38281 0.01953,-0.64844 0.07813,-0.99219 0.07422,-0.35937 0.152343,-0.58984 0.265624,-0.85937 -0.03516,0.21093 -0.07422,0.78515 -0.05469,0.99218 0.03516,0.96875 0.609375,1.84766 0.765625,2.86329 0.515625,-0.55469 1.089844,-1.07032 1.773438,-1.58204 0.378906,-0.28515 1.238281,-0.93359 2.214843,-1.33984 1.527344,-0.64453 3.316407,-1.02734 3.910157,-1.125 0.765624,-0.39844 1.429687,-0.51562 2.308593,-0.57422 0.839844,-0.0156 1.617188,0.0195 2.457031,0.0742 0.804688,0.0391 1.527344,0.0781 2.328126,0 0.722656,-0.0898 1.296874,-0.23047 1.886718,-0.66406 -0.535156,0.55469 -1.089844,0.78515 -1.828125,0.96875 -0.804687,0.21484 -1.546875,0.28906 -2.367187,0.36328 -0.25,0.0195 -0.480469,0.0352 -0.703125,0.0547 0.703125,0.23047 1.433593,0.55468 2.652343,0.91406 1.640626,0.55469 2.308594,1.43359 4.269532,1.64453 1.105468,0.0547 1.902344,0.34375 2.992187,0.11328 -1.164062,0.33985 -1.792969,0.17188 -2.992187,0.17188 -2.117188,-0.0547 -2.765625,-0.875 -4.445313,-1.21875 -2.574219,-0.55469 -2.9375,-0.98828 -5.699219,-0.66407 -3.4375,0.55079 -2.597656,1.21875 -4.332031,2.03907 -0.324219,0.0937 -0.59375,0.19531 -0.839843,0.32422 0.359374,0 0.746093,0 1.085937,-0.0195 1.433594,-0.0156 2.726563,0.13282 4.140625,0.4375 1.375,0.34375 2.632812,0.78516 3.703125,1.77344 0.703125,0.70313 0.648437,0.91406 1.125,1.59766 0.195313,0.26953 0.398437,0.39844 0.6875,0.57422 0.570313,0.32422 1.179687,0.53515 1.792969,0.72265 -0.01953,0.0742 3.566406,0.70313 3.945312,0.78516 -1.128906,0.0352 -2.863281,-0.34375 -4.066406,-0.41797 -0.644531,-0.17578 -1.292969,-0.34375 -1.929688,-0.58984 -0.378906,-0.19532 -0.644531,-0.34375 -0.933593,-0.64844 -0.496094,-0.55469 -0.550781,-0.85938 -1.179688,-1.41406 -0.992187,-0.7461 -2.191406,-1.02735 -3.375,-1.21875 -0.398437,-0.0586 -0.804687,-0.0937 -1.21875,-0.11328 l 0.01953,0.0195 c 0.08984,0.25 0.109376,0.46093 0.08984,0.70312 -0.01563,0.21094 -0.05469,0.39844 -0.109375,0.58985 -0.03906,0.13281 -0.05859,0.23046 -0.03906,0.36328 0,0.10937 0.01953,0.1914 0.05859,0.28515 0.109376,0.21094 0.265626,0.35938 0.433594,0.53516 0.230469,0.19141 0.398438,0.36328 0.574219,0.58984 0.210937,0.3086 0.285156,0.53516 0.324219,0.87891 -0.05859,-0.25 -0.214844,-0.60938 -0.417969,-0.78516 -0.210937,-0.1914 -0.398437,-0.32031 -0.628906,-0.47656 -0.25,-0.17578 -0.4375,-0.30469 -0.609375,-0.55469 -0.09375,-0.13281 -0.132813,-0.25 -0.175782,-0.39843 -0.03906,-0.19532 -0.03906,-0.34375 -0.01953,-0.53516 0.01953,-0.17578 0.03906,-0.32422 0.01953,-0.5 -0.01953,-0.15234 -0.03906,-0.26563 -0.113281,-0.39844 -0.09375,-0.10937 -0.191406,-0.1914 -0.320312,-0.24609 -0.824219,-0.26953 -2.578125,0.24609 -3.300781,0.58984 -0.894532,0.39844 -1.679688,1.02735 -2.253907,1.94922 -0.515625,0.83984 -1.050781,1.92969 -1.449219,3.29688 1.050782,-0.0937 1.847657,0.23046 2.78125,0.66796 0.703126,0.32422 1.488282,0.7461 2.214844,0.91407 0.07813,0.0195 0.382813,0.0391 0.4375,0.0195 0.128906,-0.0195 0.25,-0.0391 0.359375,-0.11328 0.15625,-0.0742 0.25,-0.17578 0.34375,-0.30469 0.128907,-0.17578 0.210938,-0.34375 0.285157,-0.55469 -0.01563,0.11328 -0.09375,0.53516 -0.171876,0.62891 -0.07422,0.17578 -0.175781,0.28515 -0.304687,0.41797 -0.15625,0.1289 -0.269531,0.1914 -0.4375,0.25 -0.191406,0.0742 -0.34375,0.0937 -0.535156,0.0937 -0.859375,0.0156 -1.679688,-0.25 -2.496094,-0.4375 -0.703125,-0.17578 -1.488281,-0.34375 -2.171875,-0.0937 -0.25,0.11328 -0.378906,0.25 -0.554688,0.48047 -0.644531,1.14453 -0.628906,3.49218 -0.609374,4.6914 0.05469,2.46094 0.113281,5.05469 3.316406,5.21094 0.113281,-0.0195 0.214844,-0.0195 0.230468,-0.0391 0.132813,-0.0352 0.230469,-0.0742 0.34375,-0.17188 0.113282,-0.10156 0.175782,-0.19531 0.25,-0.32422 0.171876,-0.3789 0.246094,-0.66797 0.550782,-0.97265 0.175781,-0.15625 0.34375,-0.23047 0.574218,-0.28516 0.304688,-0.0391 0.574219,-0.0195 0.878907,0.0195 -0.289063,0.0352 -0.535157,0.0937 -0.765625,0.26563 -0.132813,0.0742 -0.230469,0.15625 -0.289063,0.30468 -0.08984,0.26954 -0.08984,0.62891 -0.109375,0.89844 -0.03906,0.25 -0.07422,0.4336 -0.195312,0.66406 -0.128906,0.30469 -0.285156,0.5 -0.535156,0.70313 -0.230469,0.19531 -0.433594,0.30469 -0.664063,0.41797 0.378906,0.13281 0.746094,0.1914 1.199219,0.23047 0.648437,0 1.222656,-0.0742 1.851562,-0.15625 0.609375,-0.0742 1.125,-0.12891 1.734375,-0.0195 0.304688,0.0781 0.515625,0.17578 0.765625,0.36328 0.269532,0.23047 0.417969,0.43359 0.554688,0.74609 0.07422,0.17578 0.15625,0.32422 0.265625,0.46094 0.09375,0.0937 0.195312,0.17578 0.324219,0.23047 0.304687,0.11328 0.609374,0.0742 0.933593,0.0547 1.183594,-0.0547 1.792969,-0.0937 2.882813,0.46094 -1.109375,-0.43359 -1.71875,-0.32422 -2.824219,-0.11328 -0.398437,0.0781 -0.722656,0.13281 -1.144531,0.0391 -0.214844,-0.0547 -0.363282,-0.1289 -0.539063,-0.28515 -0.191406,-0.17578 -0.320312,-0.34375 -0.457031,-0.57422 -0.113281,-0.19141 -0.214844,-0.32422 -0.398438,-0.4336 -0.175781,-0.11328 -0.304687,-0.13281 -0.5,-0.15625 -0.480468,-0.0391 -0.953124,0.0937 -1.429687,0.21094 -0.6875,0.17578 -1.257813,0.30469 -1.988281,0.37891 -0.398438,0.0195 -0.765625,0.0195 -1.105469,-0.0195 0.664063,0.64843 2.113281,1.79297 4.40625,2.34765 0.359375,0.0195 0.683594,-0.0195 1.050781,-0.1289 0.175782,-0.0781 0.304688,-0.15625 0.4375,-0.30469 0.128906,-0.15625 0.191406,-0.30859 0.230469,-0.5 0.01563,0.21094 -0.01953,0.37891 -0.113281,0.57422 -0.113282,0.21094 -0.230469,0.32422 -0.417969,0.46094 -0.359375,0.26562 -0.746094,0.3789 -1.164063,0.45703 1.238282,0.51953 2.441407,0.8789 3.777344,1.18359 0.703125,0.11328 1.394532,0.15625 2.136719,0.0742 0.433594,-0.0547 0.785156,-0.15625 1.183594,-0.35938 0.398437,-0.21093 0.644531,-0.4375 0.875,-0.83984 l 0.01953,-0.0195 c 0.01953,-0.0195 0.03906,-0.0391 0.05469,-0.0742 0,0.0195 -0.03516,0.0937 -0.03516,0.0937 l -0.01953,0.0195 c -0.128906,0.47656 -0.324219,0.78125 -0.683594,1.10547 -0.210937,0.19531 -0.417968,0.34375 -0.628906,0.46094 1.523438,0.15625 2.992188,0.13281 4.582031,-0.21094 1.007813,-0.26953 1.753907,-0.58984 2.539063,-1.29297 0.800781,-0.82422 1.144531,-1.58203 1.355468,-2.71094 -0.128906,1.16407 -0.417968,1.96875 -1.183593,2.86329 -0.664063,0.70312 -1.3125,1.10937 -2.132813,1.43359 0.304688,0.0937 0.589844,0.19141 0.894532,0.28516 0.4375,0.13281 0.824218,0.25 1.277343,0.30468 0.480469,0.0391 0.820313,0.0195 1.277344,-0.17187 -0.4375,0.24609 -0.804687,0.30469 -1.277344,0.32031 -0.480469,0 -0.898437,-0.0547 -1.355469,-0.15234 -0.417968,-0.0781 -0.84375,-0.17578 -1.257812,-0.23047 -0.210938,-0.0195 -0.4375,-0.0391 -0.648438,-0.0195 -1.164062,0.28515 -2.308593,0.39843 -3.472656,0.41797 0.09375,0.0937 0.210938,0.21093 0.304688,0.30468 0.359375,0.37891 0.683594,0.72266 1.109375,1.05078 0.476562,0.32422 0.855469,0.48047 1.429687,0.53516 0.113282,0 0.210938,0.0195 0.304688,0.0195 -0.01953,0.0195 -0.285156,0.0352 -0.304688,0.0352 -0.609375,0.0586 -1.050781,-0.0156 -1.617187,-0.26563 -0.515625,-0.23047 -0.914063,-0.51562 -1.375,-0.83984 -0.4375,-0.28906 -0.804688,-0.55469 -1.296875,-0.76563 -0.15625,-0.0586 -0.285156,-0.11328 -0.417969,-0.15625 -0.304687,-0.0195 -0.609375,-0.0391 -0.914063,-0.0547 -0.230468,0.0156 -0.460937,0.0547 -0.683593,0.0742 0.03906,0.0742 0.09375,0.15625 0.128906,0.24609 0.25,0.4375 0.382813,0.82422 0.417969,1.33984 0.01953,0.48047 -0.05469,0.83985 -0.304688,1.25782 0.113282,-0.4375 0.113282,-0.78516 -0.01953,-1.20313 -0.128906,-0.41406 -0.324219,-0.70312 -0.628906,-1.02734 -0.550781,-0.55078 -1.164063,-0.91407 -1.882813,-1.16407 -0.765625,-0.1914 -1.488281,-0.39453 -2.253906,-0.64453 0.05469,0.0937 0.109375,0.19141 0.171875,0.30469 0.304687,0.70313 0.480469,1.29297 0.480469,2.07813 -0.03516,0.82031 -0.25,1.39453 -0.703125,2.07812 0.324219,-0.70312 0.4375,-1.27344 0.324219,-2.05859 -0.132813,-0.66797 -0.363282,-1.16407 -0.746094,-1.73828 -0.34375,-0.4961 -0.765625,-0.95313 -1.222656,-1.33594 -0.914063,-0.41797 -1.734376,-0.83985 -2.476563,-1.29688 0.05859,0.4375 0.09375,0.87891 0.113281,1.35938 0.03516,1.07031 0,2.34375 -0.480468,3.33594 0.175781,-1.05469 0.01953,-2.21875 -0.191407,-3.26172 -0.132812,-0.60938 -0.304687,-1.14453 -0.574219,-1.71875 -0.109374,-0.26953 -0.25,-0.53516 -0.433593,-0.76563 -1.621094,-0.97265 -2.671875,-2.34765 -3.335938,-3.45312 -0.01953,0.0352 -0.03906,0.0742 -0.05859,0.10937 -0.15625,0.4375 -0.07422,0.82422 0.01953,1.27735 0.15625,0.60937 0.324219,1.18359 0.4375,1.8125 0.109375,0.80078 0.07422,1.375 -0.15625,2.15234 0.03516,-0.66797 -0.09375,-1.39453 -0.398438,-1.98438 -0.269531,-0.57421 -0.59375,-1.05468 -0.898437,-1.58203 -0.359375,-0.64843 -0.550782,-1.14453 -0.535156,-1.90625 0.01953,-0.43359 0.113281,-0.78125 0.304687,-1.17968 0.08984,-0.26172 0.207031,-0.47266 0.355469,-0.70313 z m 0,0"
       fill-opacity="1"
       fill-rule="nonzero"
       id="path6"
       style="fill:#141414;fill-opacity:1" />
  </g>
  <path
     fill="#638968"
     d="m 28.214844,3.679688 c 0.246094,0.83984 1.164063,1.33594 2.152344,1.21875 -0.210938,-0.95313 -1.089844,-1.75391 -2.078125,-1.41016 0.683594,0.19141 1.050781,0.37891 1.375,0.875 -0.554688,-0.39843 -1.035156,-0.64062 -1.449219,-0.68359 z m 0,0"
     fill-opacity="1"
     fill-rule="nonzero"
     id="path7" />
  <path
     fill="#638968"
     d="m 26.117188,2.539058 c 0.933593,-0.0352 1.699219,-0.85937 1.847656,-1.90234 -1.050781,-0.0391 -2.117187,0.64453 -2.023437,1.77344 0.363281,-0.66797 0.683593,-0.98828 1.277343,-1.1836 -0.554687,0.45313 -0.953125,0.89063 -1.101562,1.3125 z m 0,0"
     fill-opacity="1"
     fill-rule="nonzero"
     id="path8" />
  <path
     fill="#638968"
     d="m 31.835938,5.874998 c 0.878906,0.32422 1.886719,-0.1289 2.441406,-1.05078 -0.972656,-0.43359 -2.234375,-0.21094 -2.558594,0.87891 0.589844,-0.48047 1.007813,-0.66797 1.640625,-0.60938 -0.703125,0.21094 -1.238281,0.46094 -1.523437,0.78125 z m 0,0"
     fill-opacity="1"
     fill-rule="nonzero"
     id="path9" />
  <path
     fill="#638968"
     d="m 30.007813,7.113278 c -0.398438,0.84375 -0.03906,1.90625 0.800781,2.54297 0.535156,-0.89844 0.4375,-2.17578 -0.589844,-2.61719 0.398438,0.62891 0.554688,1.07032 0.433594,1.6836 -0.15625,-0.71094 -0.339844,-1.26563 -0.644531,-1.60938 z m 0,0"
     fill-opacity="1"
     fill-rule="nonzero"
     id="path10" />
  <path
     fill="#638968"
     d="m 32.945313,7.269528 c -0.214844,0.91797 0.378906,1.86719 1.355468,2.29297 0.304688,-0.99219 -0.07422,-2.21875 -1.183593,-2.40234 0.535156,0.51562 0.785156,0.91406 0.804687,1.54297 -0.292968,-0.67188 -0.617187,-1.16407 -0.976562,-1.4336 z m 0,0"
     fill-opacity="1"
     fill-rule="nonzero"
     id="path11" />
  <g
     clip-path="url(#c0c219e16e)"
     id="g12"
     transform="translate(-45.207031,-168.60156)">
    <path
       fill="#638968"
       d="m 80.09375,175.125 c 0.554688,0.76562 1.660156,0.91406 2.613281,0.46094 -0.554687,-0.87891 -1.738281,-1.375 -2.59375,-0.66407 0.746094,-0.0586 1.179688,0 1.699219,0.37891 -0.703125,-0.19531 -1.277344,-0.26953 -1.71875,-0.17578 z m 0,0"
       fill-opacity="1"
       fill-rule="nonzero"
       id="path12" />
  </g>
  <g
     clip-path="url(#29a54129bd)"
     id="g13"
     transform="translate(-45.207031,-168.60156)">
    <path
       fill="#638968"
       d="m 74.910156,170.60547 c 0.933594,-0.0352 1.699219,-0.83985 1.847656,-1.88672 -1.054687,-0.0547 -2.117187,0.64844 -2.023437,1.75781 0.359375,-0.64844 0.683594,-0.99219 1.277344,-1.18359 -0.550781,0.47265 -0.953125,0.89062 -1.101563,1.3125 z m 0,0"
       fill-opacity="1"
       fill-rule="nonzero"
       id="path13" />
  </g>
  <path
     fill="#638968"
     d="m 30.292969,12.226558 c 0.933594,0.0937 1.8125,-0.59375 2.117188,-1.60156 -1.027344,-0.21094 -2.191407,0.32422 -2.253907,1.44922 0.460938,-0.60937 0.800781,-0.875 1.429688,-0.98828 -0.628907,0.37891 -1.089844,0.74219 -1.292969,1.14062 z m 0,0"
     fill-opacity="1"
     fill-rule="nonzero"
     id="path14" />
  <path
     fill="#638968"
     d="m 33.324219,13.277348 c 0.648438,0.66406 1.753906,0.70312 2.652344,0.1289 -0.667969,-0.82031 -1.886719,-1.16406 -2.652344,-0.33984 0.722656,-0.17578 1.183594,-0.15625 1.71875,0.17187 -0.710938,-0.10937 -1.300781,-0.13672 -1.71875,0.0391 z m 0,0"
     fill-opacity="1"
     fill-rule="nonzero"
     id="path15" />
  <path
     fill="#638968"
     d="m 31.394531,13.757808 c -0.398437,0.83985 -0.05469,1.90235 0.785157,2.55469 0.535156,-0.91406 0.433593,-2.1875 -0.59375,-2.63281 0.417969,0.62891 0.554687,1.07422 0.4375,1.68359 -0.148438,-0.71093 -0.316407,-1.26562 -0.628907,-1.60547 z m 0,0"
     fill-opacity="1"
     fill-rule="nonzero"
     id="path16" />
  <path
     fill="#638968"
     d="m 16.730469,15.640628 c 0.800781,-0.4961 1.050781,-1.57813 0.683594,-2.57422 -0.953125,0.49609 -1.523438,1.61719 -0.894532,2.53906 0,-0.74609 0.109376,-1.18359 0.535157,-1.66406 -0.269531,0.6914 -0.40625,1.26562 -0.324219,1.69922 z m 0,0"
     fill-opacity="1"
     fill-rule="nonzero"
     id="path17" />
  <path
     fill="#638968"
     d="m 17.378907,17.035158 c 0.515624,0.76562 1.597656,0.99219 2.59375,0.59375 -0.515626,-0.9336 -1.679688,-1.48828 -2.578126,-0.80469 0.765626,-0.0352 1.203126,0.0547 1.683594,0.46094 -0.691406,-0.23047 -1.265625,-0.34766 -1.699218,-0.25 z m 0,0"
     fill-opacity="1"
     fill-rule="nonzero"
     id="path18" />
  <path
     fill="#638968"
     d="m 5.761719,13.636718 c 0.613281,-0.70312 0.554688,-1.80859 -0.09375,-2.64844 -0.765625,0.71875 -0.988281,1.98438 -0.109375,2.66797 -0.230469,-0.70312 -0.25,-1.16406 0.01953,-1.73437 -0.0625,0.72656 -0.02734,1.3164 0.183595,1.71484 z m 0,0"
     fill-opacity="1"
     fill-rule="nonzero"
     id="path19" />
  <g
     clip-path="url(#744600aa63)"
     id="g20"
     transform="translate(-45.207031,-168.60156)">
    <path
       fill="#638968"
       d="m 47.839844,182.75781 c -0.765625,0.53516 -1.867188,0.37891 -2.632813,-0.34375 0.785157,-0.68359 2.058594,-0.82031 2.667969,0.12891 -0.683594,-0.30469 -1.144531,-0.35938 -1.734375,-0.15235 0.726563,0.0234 1.320313,0.11719 1.699219,0.36719 z m 0,0"
       fill-opacity="1"
       fill-rule="nonzero"
       id="path20" />
  </g>
  <path
     fill="#638968"
     d="m 12.535157,5.628908 c 0.859374,-0.38281 1.257812,-1.41406 1.027343,-2.46094 -0.988281,0.36328 -1.738281,1.39063 -1.21875,2.40234 0.08984,-0.76562 0.246094,-1.17968 0.746094,-1.57812 -0.347656,0.64453 -0.554687,1.19922 -0.554687,1.63672 z m 0,0"
     fill-opacity="1"
     fill-rule="nonzero"
     id="path21" />
  <path
     fill="#638968"
     d="m 10.429688,4.906248 c -0.933594,0.0742 -1.789063,-0.60937 -2.113281,-1.61719 1.027343,-0.19531 2.191406,0.33985 2.25,1.44922 -0.457032,-0.59375 -0.800782,-0.8789 -1.429688,-0.97265 0.628906,0.375 1.089844,0.73437 1.292969,1.14062 z m 0,0"
     fill-opacity="1"
     fill-rule="nonzero"
     id="path22" />
  <g
     clip-path="url(#f3cdbfac4e)"
     id="g23"
     transform="translate(-45.207031,-168.60156)">
    <path
       fill="#638968"
       d="m 68.859375,171.125 c 0.820313,-0.4375 1.164063,-1.48828 0.859375,-2.52344 -0.972656,0.41797 -1.644531,1.50781 -1.070312,2.47656 0.03516,-0.76562 0.191406,-1.17968 0.628906,-1.61718 -0.300782,0.66797 -0.476563,1.21875 -0.417969,1.66406 z m 0,0"
       fill-opacity="1"
       fill-rule="nonzero"
       id="path23" />
  </g>
  <path
     fill="#638968"
     d="m 27.789063,6.089848 c -0.664063,0.66406 -0.683594,1.77343 -0.109375,2.66796 0.820312,-0.66406 1.144531,-1.90234 0.339843,-2.66796 0.15625,0.71875 0.132813,1.17968 -0.171874,1.73437 0.117187,-0.72656 0.117187,-1.32031 -0.05859,-1.73437 z m 0,0"
     fill-opacity="1"
     fill-rule="nonzero"
     id="path24" />
  <path
     fill="#638968"
     d="m 20.296875,10.781248 c 0.609375,0.70313 1.699219,0.82031 2.632813,0.30469 -0.609375,-0.85938 -1.8125,-1.27734 -2.632813,-0.51563 0.746094,-0.11328 1.199219,-0.0742 1.71875,0.26563 -0.710937,-0.15625 -1.300781,-0.19141 -1.71875,-0.0547 z m 0,0"
     fill-opacity="1"
     fill-rule="nonzero"
     id="path25" />
  <path
     fill="#638968"
     d="m 18.632813,9.656248 c 0,0.9336 -0.761719,1.73438 -1.808594,1.96485 -0.09375,-1.05079 0.554688,-2.15235 1.679688,-2.11719 -0.648438,0.39844 -0.953126,0.72265 -1.125,1.33984 0.433593,-0.59765 0.839843,-1.01953 1.253906,-1.1875 z m 0,0"
     fill-opacity="1"
     fill-rule="nonzero"
     id="path26" />
  <path
     fill="#638968"
     d="m 19.613281,11.613278 c 0.589844,0.72266 0.535157,1.83203 -0.132812,2.67188 -0.746094,-0.7461 -0.96875,-2.00391 -0.09375,-2.6875 -0.230469,0.72265 -0.246094,1.16406 0.01953,1.73437 -0.04297,-0.72265 -0.0078,-1.3125 0.207032,-1.71875 z m 0,0"
     fill-opacity="1"
     fill-rule="nonzero"
     id="path27" />
  <path
     fill="#638968"
     d="m 21.117188,13.085938 c -0.378907,0.83984 -0.01953,1.88281 0.839843,2.51953 0.519532,-0.91406 0.398438,-2.19141 -0.644531,-2.61328 0.414063,0.62891 0.570313,1.05078 0.476563,1.67969 -0.160156,-0.71094 -0.367188,-1.26563 -0.671875,-1.58594 z m 0,0"
     fill-opacity="1"
     fill-rule="nonzero"
     id="path28" />
  <path
     fill="#638968"
     d="m 14.570313,16.789058 c -0.175782,0.91407 0.4375,1.84766 1.429687,2.25 0.289063,-1.00781 -0.152343,-2.23437 -1.253906,-2.38281 0.550781,0.51563 0.800781,0.89844 0.859375,1.50781 -0.324219,-0.65625 -0.648438,-1.1289 -1.035156,-1.375 z m 0,0"
     fill-opacity="1"
     fill-rule="nonzero"
     id="path29" />
  <g
     fill="#000000"
     fill-opacity="1"
     id="g32"
     transform="translate(-45.207031,-168.60156)"
     style="fill:#141414;fill-opacity:1">
    <g
       transform="translate(82.693704,194.24999)"
       id="g31"
       style="fill:#141414;fill-opacity:1">
      <g
         id="g30"
         style="fill:#141414;fill-opacity:1">
        <path
           d="m 17.453125,-15.703125 -2.125,0.328125 V 0.25 H 14.46875 L 4.375,-13.453125 V -1.375 l 2.65625,0.34375 V 0 H 0.96875 V -1.03125 L 3.125,-1.328125 V -15.15625 l -0.25,-0.3125 -1.78125,-0.234375 v -1.015625 h 3.859375 l 9.09375,12.390625 V -15.375 l -2.640625,-0.328125 v -1.015625 h 6.046875 z m 0,0"
           id="path30"
           style="fill:#141414;fill-opacity:1" />
      </g>
    </g>
  </g>
  <g
     fill="#000000"
     fill-opacity="1"
     id="g35"
     transform="translate(-45.207031,-168.60156)"
     style="fill:#141414;fill-opacity:1">
    <g
       transform="translate(101.11578,194.24999)"
       id="g34"
       style="fill:#141414;fill-opacity:1">
      <g
         id="g33"
         style="fill:#141414;fill-opacity:1">
        <path
           d="M 13.75,-0.90625 V 0 L 10.28125,0.25 10,-1.96875 C 9.3125,-1.132812 8.59375,-0.535156 7.84375,-0.171875 7.09375,0.191406 6.335938,0.375 5.578125,0.375 c -0.5,0 -0.960937,-0.078125 -1.375,-0.234375 -0.40625,-0.15625 -0.75,-0.410156 -1.03125,-0.765625 C 2.890625,-0.988281 2.675781,-1.453125 2.53125,-2.015625 2.394531,-2.585938 2.328125,-3.289062 2.328125,-4.125 l 0.078125,-6.296875 -1.78125,-0.375 v -0.875 l 3.671875,-0.359375 0.25,0.25 -0.125,3.5 v 3.875 c 0,1.125 0.160156,1.90625 0.484375,2.34375 0.332031,0.4375 0.835938,0.65625 1.515625,0.65625 1.164063,0 2.332031,-0.539062 3.5,-1.625 L 10,-10.421875 l -1.78125,-0.375 v -0.875 l 3.625,-0.359375 0.25,0.25 -0.0625,3.5 v 7 z m 0,0"
           id="path32"
           style="fill:#141414;fill-opacity:1" />
      </g>
    </g>
  </g>
  <g
     fill="#000000"
     fill-opacity="1"
     id="g38"
     transform="translate(-45.207031,-168.60156)"
     style="fill:#141414;fill-opacity:1">
    <g
       transform="translate(115.71348,194.24999)"
       id="g37"
       style="fill:#141414;fill-opacity:1">
      <g
         id="g36"
         style="fill:#141414;fill-opacity:1">
        <path
           d="m 5,-9.09375 c 0.4375,-1 0.972656,-1.78125 1.609375,-2.34375 0.644531,-0.5625 1.304687,-0.84375 1.984375,-0.84375 0.375,0 0.726562,0.101562 1.0625,0.296875 0.34375,0.1875 0.554688,0.5 0.640625,0.9375 0,0.417969 -0.140625,0.746094 -0.421875,0.984375 -0.28125,0.242188 -0.640625,0.359375 -1.078125,0.359375 -0.511719,0 -0.984375,-0.207031 -1.421875,-0.625 L 7.203125,-10.5 c -0.523437,0.386719 -0.960937,0.84375 -1.3125,1.375 -0.34375,0.523438 -0.632813,1.15625 -0.859375,1.90625 V -5.25 c 0,0.554688 0,1.199219 0,1.9375 0.00781,0.730469 0.023438,1.40625 0.046875,2.03125 L 7.125,-0.90625 V 0 H 1.078125 V -0.90625 L 2.875,-1.21875 c 0.019531,-0.632812 0.03125,-1.320312 0.03125,-2.0625 0.00781,-0.75 0.015625,-1.40625 0.015625,-1.96875 v -1.28125 c 0,-0.675781 -0.011719,-1.238281 -0.03125,-1.6875 C 2.878906,-8.675781 2.863281,-9.15625 2.84375,-9.65625 L 0.875,-9.875 v -0.875 l 3.46875,-1.53125 0.375,0.25 z m 0,0"
           id="path35"
           style="fill:#141414;fill-opacity:1" />
      </g>
    </g>
  </g>
  <g
     fill="#000000"
     fill-opacity="1"
     id="g41"
     transform="translate(-45.207031,-168.60156)"
     style="fill:#141414;fill-opacity:1">
    <g
       transform="translate(126.2868,194.24999)"
       id="g40"
       style="fill:#141414;fill-opacity:1">
      <g
         id="g39"
         style="fill:#141414;fill-opacity:1">
        <path
           d="m 8.078125,-1.078125 c -0.324219,0.417969 -0.742187,0.746094 -1.25,0.984375 C 6.328125,0.132812 5.757812,0.25 5.125,0.25 4.238281,0.25 3.539062,0.0195312 3.03125,-0.4375 c -0.5,-0.457031 -0.75,-1.175781 -0.75,-2.15625 0,-0.320312 0,-0.632812 0,-0.9375 0.00781,-0.3125 0.015625,-0.707031 0.015625,-1.1875 V -10.5 H 0.21875 v -1.09375 l 2.234375,-0.28125 0.625,-3.40625 H 4.59375 l -0.125,3.453125 H 7.828125 V -10.5 h -3.40625 v 7.59375 c 0,0.65625 0.117187,1.132812 0.359375,1.421875 0.25,0.292969 0.585938,0.4375 1.015625,0.4375 0.5,0 1.054687,-0.234375 1.671875,-0.703125 z m 0,0"
           id="path38"
           style="fill:#141414;fill-opacity:1" />
      </g>
    </g>
  </g>
  <g
     fill="#000000"
     fill-opacity="1"
     id="g44"
     transform="translate(-45.207031,-168.60156)"
     style="fill:#141414;fill-opacity:1">
    <g
       transform="translate(134.43551,194.24999)"
       id="g43"
       style="fill:#141414;fill-opacity:1">
      <g
         id="g42"
         style="fill:#141414;fill-opacity:1">
        <path
           d="M 13.75,-0.90625 V 0 L 10.28125,0.25 10,-1.96875 C 9.3125,-1.132812 8.59375,-0.535156 7.84375,-0.171875 7.09375,0.191406 6.335938,0.375 5.578125,0.375 c -0.5,0 -0.960937,-0.078125 -1.375,-0.234375 -0.40625,-0.15625 -0.75,-0.410156 -1.03125,-0.765625 C 2.890625,-0.988281 2.675781,-1.453125 2.53125,-2.015625 2.394531,-2.585938 2.328125,-3.289062 2.328125,-4.125 l 0.078125,-6.296875 -1.78125,-0.375 v -0.875 l 3.671875,-0.359375 0.25,0.25 -0.125,3.5 v 3.875 c 0,1.125 0.160156,1.90625 0.484375,2.34375 0.332031,0.4375 0.835938,0.65625 1.515625,0.65625 1.164063,0 2.332031,-0.539062 3.5,-1.625 L 10,-10.421875 l -1.78125,-0.375 v -0.875 l 3.625,-0.359375 0.25,0.25 -0.0625,3.5 v 7 z m 0,0"
           id="path41"
           style="fill:#141414;fill-opacity:1" />
      </g>
    </g>
  </g>
  <g
     fill="#000000"
     fill-opacity="1"
     id="g47"
     transform="translate(-45.207031,-168.60156)"
     style="fill:#141414;fill-opacity:1">
    <g
       transform="translate(149.0332,194.24999)"
       id="g46"
       style="fill:#141414;fill-opacity:1">
      <g
         id="g45"
         style="fill:#141414;fill-opacity:1">
        <path
           d="m 5,-9.09375 c 0.4375,-1 0.972656,-1.78125 1.609375,-2.34375 0.644531,-0.5625 1.304687,-0.84375 1.984375,-0.84375 0.375,0 0.726562,0.101562 1.0625,0.296875 0.34375,0.1875 0.554688,0.5 0.640625,0.9375 0,0.417969 -0.140625,0.746094 -0.421875,0.984375 -0.28125,0.242188 -0.640625,0.359375 -1.078125,0.359375 -0.511719,0 -0.984375,-0.207031 -1.421875,-0.625 L 7.203125,-10.5 c -0.523437,0.386719 -0.960937,0.84375 -1.3125,1.375 -0.34375,0.523438 -0.632813,1.15625 -0.859375,1.90625 V -5.25 c 0,0.554688 0,1.199219 0,1.9375 0.00781,0.730469 0.023438,1.40625 0.046875,2.03125 L 7.125,-0.90625 V 0 H 1.078125 V -0.90625 L 2.875,-1.21875 c 0.019531,-0.632812 0.03125,-1.320312 0.03125,-2.0625 0.00781,-0.75 0.015625,-1.40625 0.015625,-1.96875 v -1.28125 c 0,-0.675781 -0.011719,-1.238281 -0.03125,-1.6875 C 2.878906,-8.675781 2.863281,-9.15625 2.84375,-9.65625 L 0.875,-9.875 v -0.875 l 3.46875,-1.53125 0.375,0.25 z m 0,0"
           id="path44"
           style="fill:#141414;fill-opacity:1" />
      </g>
    </g>
  </g>
  <g
     fill="#000000"
     fill-opacity="1"
     id="g50"
     transform="translate(-45.207031,-168.60156)"
     style="fill:#141414;fill-opacity:1">
    <g
       transform="translate(159.60652,194.24999)"
       id="g49"
       style="fill:#141414;fill-opacity:1">
      <g
         id="g48"
         style="fill:#141414;fill-opacity:1">
        <path
           d="m 8.03125,-7.125 c 0.59375,0 0.988281,-0.125 1.1875,-0.375 0.207031,-0.25 0.3125,-0.554688 0.3125,-0.921875 0,-0.351563 -0.074219,-0.691406 -0.21875,-1.015625 -0.148438,-0.320312 -0.339844,-0.609375 -0.578125,-0.859375 -0.242187,-0.25 -0.523437,-0.445313 -0.84375,-0.59375 -0.324219,-0.15625 -0.679687,-0.234375 -1.0625,-0.234375 -0.355469,0 -0.71875,0.07422 -1.09375,0.21875 -0.375,0.136719 -0.71875,0.371094 -1.03125,0.703125 -0.304687,0.324219 -0.570313,0.742187 -0.796875,1.25 -0.21875,0.5 -0.367188,1.109375 -0.4375,1.828125 z m -4.609375,1.078125 c 0.03125,1.554687 0.410156,2.746094 1.140625,3.578125 0.738281,0.835938 1.707031,1.25 2.90625,1.25 0.800781,0 1.46875,-0.164062 2,-0.5 0.539062,-0.332031 1.035156,-0.769531 1.484375,-1.3125 l 0.59375,0.484375 C 11.117188,-1.648438 10.5,-0.9375 9.6875,-0.40625 8.875,0.113281 7.894531,0.375 6.75,0.375 5.894531,0.375 5.125,0.234375 4.4375,-0.046875 3.757812,-0.328125 3.175781,-0.738281 2.6875,-1.28125 2.207031,-1.820312 1.832031,-2.476562 1.5625,-3.25 1.300781,-4.019531 1.171875,-4.878906 1.171875,-5.828125 c 0,-0.945313 0.148437,-1.816406 0.453125,-2.609375 0.300781,-0.789062 0.710938,-1.46875 1.234375,-2.03125 0.53125,-0.570312 1.144531,-1.015625 1.84375,-1.328125 0.695313,-0.320313 1.4375,-0.484375 2.21875,-0.484375 0.65625,0 1.269531,0.109375 1.84375,0.328125 0.570313,0.21875 1.066406,0.539063 1.484375,0.953125 0.414062,0.417969 0.742188,0.929688 0.984375,1.53125 0.238281,0.59375 0.359375,1.265625 0.359375,2.015625 0,0.28125 -0.01563,0.542969 -0.04687,0.78125 -0.03125,0.230469 -0.07422,0.4375 -0.125,0.625 z m 0,0"
           id="path47"
           style="fill:#141414;fill-opacity:1" />
      </g>
    </g>
  </g>
  <g
     fill="#000000"
     fill-opacity="1"
     id="g53"
     transform="translate(-45.207031,-168.60156)"
     style="fill:#141414;fill-opacity:1">
    <g
       transform="translate(172.35451,194.24999)"
       id="g52"
       style="fill:#141414;fill-opacity:1">
      <g
         id="g51"
         style="fill:#141414;fill-opacity:1">
        <path
           d="M 9.65625,-9.546875 C 9.082031,-10.035156 8.570312,-10.375 8.125,-10.5625 7.675781,-10.75 7.242188,-10.84375 6.828125,-10.84375 c -0.46875,0 -0.914063,0.101562 -1.328125,0.296875 -0.417969,0.199219 -0.789062,0.5 -1.109375,0.90625 -0.3125,0.40625 -0.5625,0.921875 -0.75,1.546875 C 3.460938,-7.476562 3.375,-6.75 3.375,-5.90625 c 0,0.835938 0.085938,1.558594 0.265625,2.171875 0.175781,0.605469 0.414063,1.109375 0.71875,1.515625 0.3125,0.398438 0.675781,0.695312 1.09375,0.890625 0.414063,0.1875 0.875,0.28125 1.375,0.28125 0.53125,0 1.015625,-0.109375 1.453125,-0.328125 0.445312,-0.226562 0.90625,-0.59375 1.375,-1.09375 z m 4.140625,8.640625 V 0 L 9.90625,0.25 9.71875,-1.421875 C 9.289062,-0.835938 8.800781,-0.390625 8.25,-0.078125 7.695312,0.222656 7.019531,0.375 6.21875,0.375 5.457031,0.375 4.765625,0.222656 4.140625,-0.078125 3.515625,-0.378906 2.972656,-0.800781 2.515625,-1.34375 2.066406,-1.894531 1.722656,-2.550781 1.484375,-3.3125 1.242188,-4.070312 1.125,-4.910156 1.125,-5.828125 1.125,-6.773438 1.253906,-7.644531 1.515625,-8.4375 1.785156,-9.226562 2.15625,-9.90625 2.625,-10.46875 c 0.476562,-0.570312 1.039062,-1.015625 1.6875,-1.328125 0.65625,-0.320313 1.367188,-0.484375 2.140625,-0.484375 0.59375,0 1.15625,0.125 1.6875,0.375 0.539063,0.242188 1.066406,0.65625 1.578125,1.25 v -5.3125 l -2.125,-0.25 v -0.875 l 3.9375,-1.125 0.34375,0.1875 -0.09375,3.5625 v 13.25 z m 0,0"
           id="path50"
           style="fill:#141414;fill-opacity:1" />
      </g>
    </g>
  </g>
  <g
     fill="#000000"
     fill-opacity="1"
     id="g56"
     transform="translate(-45.207031,-168.60156)">
    <g
       transform="translate(186.52726,194.24999)"
       id="g55">
      <g
         id="g54" />
    </g>
  </g>
  <g
     fill="#000000"
     fill-opacity="1"
     id="g59"
     transform="translate(-45.207031,-168.60156)"
     style="fill:#141414;fill-opacity:1">
    <g
       transform="translate(192.35134,194.24999)"
       id="g58"
       style="fill:#141414;fill-opacity:1">
      <g
         id="g57"
         style="fill:#141414;fill-opacity:1">
        <path
           d="m 7.71875,-8.875 c 1.351562,0 2.351562,-0.328125 3,-0.984375 0.65625,-0.65625 0.984375,-1.507813 0.984375,-2.5625 0,-1 -0.292969,-1.769531 -0.875,-2.3125 C 10.242188,-15.273438 9.300781,-15.546875 8,-15.546875 H 5.84375 c -0.03125,1.085937 -0.046875,2.164063 -0.046875,3.234375 0,1.074219 0,2.21875 0,3.4375 z m 8.1875,7.84375 V 0 C 15.664062,0.0820312 15.390625,0.144531 15.078125,0.1875 14.773438,0.226562 14.429688,0.25 14.046875,0.25 c -0.8125,0 -1.449219,-0.117188 -1.90625,-0.34375 C 11.691406,-0.332031 11.394531,-0.75 11.25,-1.34375 l -1,-4 C 10.132812,-5.84375 9.988281,-6.25 9.8125,-6.5625 9.632812,-6.875 9.410156,-7.113281 9.140625,-7.28125 8.878906,-7.457031 8.566406,-7.570312 8.203125,-7.625 7.835938,-7.6875 7.40625,-7.71875 6.90625,-7.71875 H 5.796875 c 0,1.125 0,2.214844 0,3.265625 0,1.054687 0.015625,2.105469 0.046875,3.15625 L 8.171875,-1.03125 V 0 H 1.09375 v -1.03125 l 2.3125,-0.265625 c 0.03125,-1.050781 0.046875,-2.113281 0.046875,-3.1875 0,-1.070313 0,-2.160156 0,-3.265625 v -1.21875 c 0,-1.082031 0,-2.15625 0,-3.21875 0,-1.070312 -0.015625,-2.148438 -0.046875,-3.234375 l -2.3125,-0.28125 v -1.015625 h 7 c 1.914062,0 3.40625,0.382812 4.46875,1.140625 1.0625,0.75 1.59375,1.804687 1.59375,3.15625 0,0.511719 -0.08594,1.007813 -0.25,1.484375 -0.15625,0.480469 -0.398438,0.914062 -0.71875,1.296875 -0.324219,0.375 -0.742188,0.703125 -1.25,0.984375 -0.511719,0.273438 -1.125,0.476562 -1.84375,0.609375 0.632812,0.179687 1.160156,0.511719 1.578125,1 0.414063,0.480469 0.757813,1.179687 1.03125,2.09375 l 1.078125,3.671875 z m 0,0"
           id="path56"
           style="fill:#141414;fill-opacity:1" />
      </g>
    </g>
  </g>
  <g
     fill="#000000"
     fill-opacity="1"
     id="g62"
     transform="translate(-45.207031,-168.60156)"
     style="fill:#141414;fill-opacity:1">
    <g
       transform="translate(208.62376,194.24999)"
       id="g61"
       style="fill:#141414;fill-opacity:1">
      <g
         id="g60"
         style="fill:#141414;fill-opacity:1">
        <path
           d="m 6.875,-11.125 c -1.105469,0 -1.949219,0.449219 -2.53125,1.34375 -0.585938,0.886719 -0.875,2.179688 -0.875,3.875 0,1.6875 0.289062,2.96875 0.875,3.84375 0.582031,0.875 1.425781,1.3125 2.53125,1.3125 1.082031,0 1.914062,-0.4375 2.5,-1.3125 0.582031,-0.875 0.875,-2.15625 0.875,-3.84375 0,-1.695312 -0.292969,-2.988281 -0.875,-3.875 -0.585938,-0.894531 -1.417969,-1.34375 -2.5,-1.34375 z m 0,-1.15625 c 0.71875,0 1.421875,0.140625 2.109375,0.421875 0.695313,0.273437 1.3125,0.679687 1.84375,1.21875 0.53125,0.542969 0.960937,1.210937 1.296875,2 0.332031,0.792969 0.5,1.703125 0.5,2.734375 0,1.042969 -0.164062,1.953125 -0.484375,2.734375 -0.324219,0.78125 -0.757813,1.4375 -1.296875,1.96875 -0.542969,0.523437 -1.164062,0.917969 -1.859375,1.1875 C 8.296875,0.242188 7.59375,0.375 6.875,0.375 c -0.730469,0 -1.445312,-0.132812 -2.140625,-0.390625 -0.6875,-0.269531 -1.304687,-0.664063 -1.84375,-1.1875 -0.53125,-0.53125 -0.960937,-1.1875 -1.28125,-1.96875 C 1.285156,-3.953125 1.125,-4.863281 1.125,-5.90625 c 0,-1.03125 0.160156,-1.941406 0.484375,-2.734375 0.320313,-0.789063 0.753906,-1.457031 1.296875,-2 0.539062,-0.539063 1.15625,-0.945313 1.84375,-1.21875 0.6875,-0.28125 1.394531,-0.421875 2.125,-0.421875 z m 0,0"
           id="path59"
           style="fill:#141414;fill-opacity:1" />
      </g>
    </g>
  </g>
  <g
     fill="#000000"
     fill-opacity="1"
     id="g65"
     transform="translate(-45.207031,-168.60156)"
     style="fill:#141414;fill-opacity:1">
    <g
       transform="translate(222.34659,194.24999)"
       id="g64"
       style="fill:#141414;fill-opacity:1">
      <g
         id="g63"
         style="fill:#141414;fill-opacity:1">
        <path
           d="m 6.875,-11.125 c -1.105469,0 -1.949219,0.449219 -2.53125,1.34375 -0.585938,0.886719 -0.875,2.179688 -0.875,3.875 0,1.6875 0.289062,2.96875 0.875,3.84375 0.582031,0.875 1.425781,1.3125 2.53125,1.3125 1.082031,0 1.914062,-0.4375 2.5,-1.3125 0.582031,-0.875 0.875,-2.15625 0.875,-3.84375 0,-1.695312 -0.292969,-2.988281 -0.875,-3.875 -0.585938,-0.894531 -1.417969,-1.34375 -2.5,-1.34375 z m 0,-1.15625 c 0.71875,0 1.421875,0.140625 2.109375,0.421875 0.695313,0.273437 1.3125,0.679687 1.84375,1.21875 0.53125,0.542969 0.960937,1.210937 1.296875,2 0.332031,0.792969 0.5,1.703125 0.5,2.734375 0,1.042969 -0.164062,1.953125 -0.484375,2.734375 -0.324219,0.78125 -0.757813,1.4375 -1.296875,1.96875 -0.542969,0.523437 -1.164062,0.917969 -1.859375,1.1875 C 8.296875,0.242188 7.59375,0.375 6.875,0.375 c -0.730469,0 -1.445312,-0.132812 -2.140625,-0.390625 -0.6875,-0.269531 -1.304687,-0.664063 -1.84375,-1.1875 -0.53125,-0.53125 -0.960937,-1.1875 -1.28125,-1.96875 C 1.285156,-3.953125 1.125,-4.863281 1.125,-5.90625 c 0,-1.03125 0.160156,-1.941406 0.484375,-2.734375 0.320313,-0.789063 0.753906,-1.457031 1.296875,-2 0.539062,-0.539063 1.15625,-0.945313 1.84375,-1.21875 0.6875,-0.28125 1.394531,-0.421875 2.125,-0.421875 z m 0,0"
           id="path62"
           style="fill:#141414;fill-opacity:1" />
      </g>
    </g>
  </g>
  <g
     fill="#000000"
     fill-opacity="1"
     id="g68"
     transform="translate(-45.207031,-168.60156)"
     style="fill:#141414;fill-opacity:1">
    <g
       transform="translate(236.06942,194.24999)"
       id="g67"
       style="fill:#141414;fill-opacity:1">
      <g
         id="g66"
         style="fill:#141414;fill-opacity:1">
        <path
           d="m 8.078125,-1.078125 c -0.324219,0.417969 -0.742187,0.746094 -1.25,0.984375 C 6.328125,0.132812 5.757812,0.25 5.125,0.25 4.238281,0.25 3.539062,0.0195312 3.03125,-0.4375 c -0.5,-0.457031 -0.75,-1.175781 -0.75,-2.15625 0,-0.320312 0,-0.632812 0,-0.9375 0.00781,-0.3125 0.015625,-0.707031 0.015625,-1.1875 V -10.5 H 0.21875 v -1.09375 l 2.234375,-0.28125 0.625,-3.40625 H 4.59375 l -0.125,3.453125 H 7.828125 V -10.5 h -3.40625 v 7.59375 c 0,0.65625 0.117187,1.132812 0.359375,1.421875 0.25,0.292969 0.585938,0.4375 1.015625,0.4375 0.5,0 1.054687,-0.234375 1.671875,-0.703125 z m 0,0"
           id="path65"
           style="fill:#141414;fill-opacity:1" />
      </g>
    </g>
  </g>
  <g
     fill="#000000"
     fill-opacity="1"
     id="g71"
     transform="translate(-45.207031,-168.60156)"
     style="fill:#141414;fill-opacity:1">
    <g
       transform="translate(244.21812,194.24999)"
       id="g70"
       style="fill:#141414;fill-opacity:1">
      <g
         id="g69"
         style="fill:#141414;fill-opacity:1">
        <path
           d="m 6.453125,-6.921875 c 1.257813,0.46875 2.144531,1.007813 2.65625,1.609375 C 9.617188,-4.707031 9.875,-4.007812 9.875,-3.21875 9.875,-2.757812 9.773438,-2.3125 9.578125,-1.875 9.378906,-1.4375 9.070312,-1.050781 8.65625,-0.71875 8.25,-0.382812 7.738281,-0.117188 7.125,0.078125 6.519531,0.273438 5.820312,0.375 5.03125,0.375 4.3125,0.375 3.660156,0.296875 3.078125,0.140625 2.503906,-0.015625 1.90625,-0.257812 1.28125,-0.59375 L 1.203125,-3.328125 h 1.375 l 0.46875,2.15625 c 0.582031,0.261719 1.257813,0.390625 2.03125,0.390625 0.945313,0 1.65625,-0.171875 2.125,-0.515625 0.46875,-0.351563 0.703125,-0.820313 0.703125,-1.40625 0,-0.53125 -0.199219,-0.953125 -0.59375,-1.265625 C 6.914062,-4.289062 6.320312,-4.601562 5.53125,-4.90625 L 4.375,-5.328125 C 3.457031,-5.660156 2.722656,-6.097656 2.171875,-6.640625 1.617188,-7.179688 1.34375,-7.851562 1.34375,-8.65625 c 0,-0.476562 0.101562,-0.929688 0.3125,-1.359375 0.207031,-0.4375 0.5,-0.820313 0.875,-1.15625 0.375,-0.332031 0.832031,-0.597656 1.375,-0.796875 0.539062,-0.207031 1.144531,-0.3125 1.8125,-0.3125 0.6875,0 1.304688,0.08984 1.859375,0.265625 0.550781,0.179687 1.097656,0.433594 1.640625,0.765625 L 9.125,-8.703125 H 7.828125 l -0.375,-2 c -0.605469,-0.28125 -1.1875,-0.421875 -1.75,-0.421875 -0.773437,0 -1.355469,0.164062 -1.75,0.484375 -0.386719,0.324219 -0.578125,0.773437 -0.578125,1.34375 0,0.5 0.171875,0.898437 0.515625,1.1875 0.34375,0.292969 0.945313,0.59375 1.8125,0.90625 z m 0,0"
           id="path68"
           style="fill:#141414;fill-opacity:1" />
      </g>
    </g>
  </g>
  <g
     fill="#000000"
     fill-opacity="1"
     id="g74"
     transform="translate(-45.207031,-168.60156)">
    <g
       transform="translate(255.09141,194.24999)"
       id="g73">
      <g
         id="g72" />
    </g>
  </g>
  <g
     fill="#000000"
     fill-opacity="1"
     id="g77"
     transform="translate(-45.207031,-168.60156)"
     style="fill:#141414;fill-opacity:1">
    <g
       transform="translate(260.91549,194.24999)"
       id="g76"
       style="fill:#141414;fill-opacity:1">
      <g
         id="g75"
         style="fill:#141414;fill-opacity:1">
        <path
           d="M 13.828125,-4.703125 13.578125,0 H 1.09375 v -1.03125 l 2.3125,-0.265625 c 0.03125,-1.082031 0.046875,-2.15625 0.046875,-3.21875 0,-1.070313 0,-2.148437 0,-3.234375 v -1.21875 c 0,-1.101562 0,-2.191406 0,-3.265625 0,-1.070313 -0.015625,-2.132813 -0.046875,-3.1875 l -2.3125,-0.28125 v -1.015625 h 7.078125 v 1.015625 l -2.328125,0.28125 c -0.03125,1.085937 -0.046875,2.164063 -0.046875,3.234375 0,1.0625 0,2.136719 0,3.21875 V -7.75 c 0,1.105469 0,2.199219 0,3.28125 0,1.085938 0.015625,2.15625 0.046875,3.21875 h 5.703125 l 0.734375,-3.453125 z m 0,0"
           id="path74"
           style="fill:#141414;fill-opacity:1" />
      </g>
    </g>
  </g>
  <g
     fill="#000000"
     fill-opacity="1"
     id="g80"
     transform="translate(-45.207031,-168.60156)"
     style="fill:#141414;fill-opacity:1">
    <g
       transform="translate(275.81313,194.24999)"
       id="g79"
       style="fill:#141414;fill-opacity:1">
      <g
         id="g78"
         style="fill:#141414;fill-opacity:1">
        <path
           d="m 3.828125,-14.953125 c -0.492187,0 -0.890625,-0.144531 -1.203125,-0.4375 -0.3125,-0.300781 -0.46875,-0.695313 -0.46875,-1.1875 0,-0.476563 0.15625,-0.863281 0.46875,-1.15625 0.3125,-0.289063 0.710938,-0.4375 1.203125,-0.4375 0.476563,0 0.875,0.148437 1.1875,0.4375 0.320313,0.292969 0.484375,0.679687 0.484375,1.15625 0,0.492187 -0.164062,0.886719 -0.484375,1.1875 -0.3125,0.292969 -0.710937,0.4375 -1.1875,0.4375 z M 6.671875,-0.90625 V 0 H 0.875 V -0.90625 L 2.75,-1.25 C 2.769531,-1.882812 2.78125,-2.570312 2.78125,-3.3125 2.789062,-4.050781 2.796875,-4.695312 2.796875,-5.25 V -6.5 c 0,-0.6875 -0.011719,-1.257812 -0.03125,-1.71875 C 2.753906,-8.675781 2.738281,-9.15625 2.71875,-9.65625 L 0.75,-9.875 v -0.875 l 3.84375,-1.53125 0.375,0.25 -0.0625,3.40625 v 3.375 c 0,0.554688 0,1.199219 0,1.9375 0.00781,0.742188 0.023438,1.429688 0.046875,2.0625 z m 0,0"
           id="path77"
           style="fill:#141414;fill-opacity:1" />
      </g>
    </g>
  </g>
  <g
     fill="#000000"
     fill-opacity="1"
     id="g83"
     transform="translate(-45.207031,-168.60156)"
     style="fill:#141414;fill-opacity:1">
    <g
       transform="translate(283.26195,194.24999)"
       id="g82"
       style="fill:#141414;fill-opacity:1">
      <g
         id="g81"
         style="fill:#141414;fill-opacity:1">
        <path
           d="M 12.40625,-10.796875 11.046875,-10.53125 6.953125,0.25 H 5.90625 L 1.375,-10.59375 0,-10.796875 v -1.03125 h 6.046875 v 1.03125 l -2.203125,0.265625 3.0625,8.0625 2.796875,-8.03125 -2.03125,-0.296875 v -1.03125 h 4.734375 z m 0,0"
           id="path80"
           style="fill:#141414;fill-opacity:1" />
      </g>
    </g>
  </g>
  <g
     fill="#000000"
     fill-opacity="1"
     id="g86"
     transform="translate(-45.207031,-168.60156)"
     style="fill:#141414;fill-opacity:1">
    <g
       transform="translate(295.90994,194.24999)"
       id="g85"
       style="fill:#141414;fill-opacity:1">
      <g
         id="g84"
         style="fill:#141414;fill-opacity:1">
        <path
           d="m 3.828125,-14.953125 c -0.492187,0 -0.890625,-0.144531 -1.203125,-0.4375 -0.3125,-0.300781 -0.46875,-0.695313 -0.46875,-1.1875 0,-0.476563 0.15625,-0.863281 0.46875,-1.15625 0.3125,-0.289063 0.710938,-0.4375 1.203125,-0.4375 0.476563,0 0.875,0.148437 1.1875,0.4375 0.320313,0.292969 0.484375,0.679687 0.484375,1.15625 0,0.492187 -0.164062,0.886719 -0.484375,1.1875 -0.3125,0.292969 -0.710937,0.4375 -1.1875,0.4375 z M 6.671875,-0.90625 V 0 H 0.875 V -0.90625 L 2.75,-1.25 C 2.769531,-1.882812 2.78125,-2.570312 2.78125,-3.3125 2.789062,-4.050781 2.796875,-4.695312 2.796875,-5.25 V -6.5 c 0,-0.6875 -0.011719,-1.257812 -0.03125,-1.71875 C 2.753906,-8.675781 2.738281,-9.15625 2.71875,-9.65625 L 0.75,-9.875 v -0.875 l 3.84375,-1.53125 0.375,0.25 -0.0625,3.40625 v 3.375 c 0,0.554688 0,1.199219 0,1.9375 0.00781,0.742188 0.023438,1.429688 0.046875,2.0625 z m 0,0"
           id="path83"
           style="fill:#141414;fill-opacity:1" />
      </g>
    </g>
  </g>
  <g
     fill="#000000"
     fill-opacity="1"
     id="g89"
     transform="translate(-45.207031,-168.60156)"
     style="fill:#141414;fill-opacity:1">
    <g
       transform="translate(303.35876,194.24999)"
       id="g88"
       style="fill:#141414;fill-opacity:1">
      <g
         id="g87"
         style="fill:#141414;fill-opacity:1">
        <path
           d="M 14.421875,-0.90625 V 0 H 8.625 V -0.90625 L 10.46875,-1.25 c 0.01953,-0.613281 0.03516,-1.285156 0.04687,-2.015625 0.0078,-0.738281 0.01563,-1.398437 0.01563,-1.984375 v -2.203125 c 0,-1.132813 -0.164062,-1.925781 -0.484375,-2.375 C 9.734375,-10.273438 9.207031,-10.5 8.46875,-10.5 c -0.585938,0 -1.148438,0.125 -1.6875,0.375 -0.542969,0.25 -1.125,0.652344 -1.75,1.203125 V -5.25 c 0,0.554688 0,1.199219 0,1.9375 0.00781,0.742188 0.023438,1.429688 0.046875,2.0625 l 1.75,0.34375 V 0 H 1.03125 V -0.90625 L 2.875,-1.25 C 2.894531,-1.882812 2.90625,-2.566406 2.90625,-3.296875 2.914062,-4.035156 2.921875,-4.6875 2.921875,-5.25 v -1.28125 c 0,-0.675781 -0.011719,-1.238281 -0.03125,-1.6875 C 2.878906,-8.675781 2.863281,-9.15625 2.84375,-9.65625 L 0.875,-9.875 v -0.875 l 3.46875,-1.53125 0.375,0.25 L 4.921875,-10 c 0.613281,-0.6875 1.316406,-1.238281 2.109375,-1.65625 0.789062,-0.414062 1.585938,-0.625 2.390625,-0.625 1.082031,0 1.882813,0.359375 2.40625,1.078125 0.53125,0.71875 0.796875,1.902344 0.796875,3.546875 V -5.25 c 0,0.585938 0.0039,1.242188 0.01563,1.96875 0.0078,0.71875 0.01953,1.398438 0.03125,2.03125 z m 0,0"
           id="path86"
           style="fill:#141414;fill-opacity:1" />
      </g>
    </g>
  </g>
  <g
     fill="#000000"
     fill-opacity="1"
     id="g92"
     transform="translate(-45.207031,-168.60156)"
     style="fill:#141414;fill-opacity:1">
    <g
       transform="translate(318.53136,194.24999)"
       id="g91"
       style="fill:#141414;fill-opacity:1">
      <g
         id="g90"
         style="fill:#141414;fill-opacity:1">
        <path
           d="m 5.921875,-5.078125 c 0.800781,0 1.425781,-0.289063 1.875,-0.875 0.445313,-0.582031 0.671875,-1.335937 0.671875,-2.265625 0,-0.90625 -0.210938,-1.632812 -0.625,-2.1875 C 7.425781,-10.96875 6.828125,-11.25 6.046875,-11.25 5.242188,-11.25 4.625,-10.960938 4.1875,-10.390625 3.75,-9.816406 3.53125,-9.070312 3.53125,-8.15625 c 0,0.917969 0.207031,1.664062 0.625,2.234375 0.414062,0.5625 1.003906,0.84375 1.765625,0.84375 z M 5.125,0.03125 c -0.4375,0 -0.867188,-0.0390625 -1.28125,-0.125 C 3.5625,0.238281 3.335938,0.5625 3.171875,0.875 c -0.167969,0.3125 -0.25,0.671875 -0.25,1.078125 0,0.75 0.296875,1.289063 0.890625,1.625 C 4.414062,3.921875 5.203125,4.09375 6.171875,4.09375 7.554688,4.09375 8.601562,3.851562 9.3125,3.375 10.019531,2.894531 10.375,2.3125 10.375,1.625 10.375,1.425781 10.33594,1.226562 10.265625,1.03125 10.191406,0.84375 10.054688,0.671875 9.859375,0.515625 9.671875,0.367188 9.414062,0.25 9.09375,0.15625 8.78125,0.0703125 8.382812,0.03125 7.90625,0.03125 Z M 12.40625,-10.375 h -2.4375 c 0.375,0.636719 0.5625,1.371094 0.5625,2.203125 0,0.648437 -0.121094,1.226563 -0.359375,1.734375 C 9.941406,-5.925781 9.625,-5.492188 9.21875,-5.140625 8.820312,-4.796875 8.347656,-4.53125 7.796875,-4.34375 7.242188,-4.164062 6.644531,-4.078125 6,-4.078125 c -0.335938,0 -0.652344,-0.019531 -0.953125,-0.0625 -0.304687,-0.039063 -0.59375,-0.101563 -0.875,-0.1875 -0.136719,0.1875 -0.25,0.386719 -0.34375,0.59375 -0.085937,0.210937 -0.125,0.429687 -0.125,0.65625 0,0.386719 0.140625,0.6875 0.421875,0.90625 0.28125,0.21875 0.789062,0.328125 1.53125,0.328125 H 8.25 c 1.363281,0 2.375,0.242188 3.03125,0.71875 0.664062,0.480469 1,1.1601562 1,2.046875 0,0.550781 -0.132812,1.082031 -0.390625,1.59375 -0.261719,0.519531 -0.65625,0.976563 -1.1875,1.375 C 10.179688,4.296875 9.53125,4.617188 8.75,4.859375 7.976562,5.097656 7.070312,5.21875 6.03125,5.21875 5.144531,5.21875 4.375,5.144531 3.71875,5 3.070312,4.851562 2.535156,4.648438 2.109375,4.390625 1.679688,4.128906 1.363281,3.820312 1.15625,3.46875 0.945312,3.125 0.84375,2.757812 0.84375,2.375 c 0,-1.03125 0.773438,-1.9375 2.328125,-2.71875 -0.480469,-0.21875 -0.824219,-0.5 -1.03125,-0.84375 -0.210937,-0.34375 -0.3125,-0.707031 -0.3125,-1.09375 0,-0.445312 0.132813,-0.859375 0.40625,-1.234375 0.28125,-0.382813 0.675781,-0.765625 1.1875,-1.140625 C 2.835938,-4.988281 2.367188,-5.445312 2.015625,-6.03125 1.671875,-6.613281 1.5,-7.328125 1.5,-8.171875 c 0,-0.65625 0.113281,-1.234375 0.34375,-1.734375 0.238281,-0.507812 0.554688,-0.9375 0.953125,-1.28125 0.40625,-0.351562 0.878906,-0.625 1.421875,-0.8125 0.550781,-0.1875 1.15625,-0.28125 1.8125,-0.28125 1.3125,0 2.375,0.34375 3.1875,1.03125 l 2.8125,-0.953125 0.375,0.25 z m 0,0"
           id="path89"
           style="fill:#141414;fill-opacity:1" />
      </g>
    </g>
  </g>
</svg>
